<?xml version="1.0" encoding="UTF-8"?>
<svg width="184px" height="311px" viewBox="0 0 184 311" version="1.1" xmlns="http://www.w3.org/2000/svg" xmlns:xlink="http://www.w3.org/1999/xlink">
    <!-- Generator: Sketch 51.2 (57519) - http://www.bohemiancoding.com/sketch -->
    <title>Brand/ Logo/ Master-Brand</title>
    <desc>Created with Sketch.</desc>
    <defs></defs>
    <g id="Brand-Guideline" stroke="none" stroke-width="1" fill="none" fill-rule="evenodd">
        <g id="p06" transform="translate(-105.000000, -120.000000)" fill-rule="nonzero">
            <g id="Brand/-Logo/-Master-Brand" transform="translate(105.000000, 120.000000)">
                <rect id="Rectangle-2" fill="#348ECA" opacity="0.8" transform="translate(29.000000, 17.000000) rotate(-1.000000) translate(-29.000000, -17.000000) " x="13" y="1" width="32" height="32"></rect>
                <rect id="Rectangle-2-Copy" fill="#D52E37" opacity="0.8" transform="translate(53.500000, 27.500000) rotate(-5.000000) translate(-53.500000, -27.500000) " x="40" y="14" width="27" height="27"></rect>
                <rect id="Rectangle-2-Copy-3" fill="#8774AC" opacity="0.8" transform="translate(72.500000, 94.500000) rotate(-50.000000) translate(-72.500000, -94.500000) " x="35" y="57" width="75" height="75"></rect>
                <rect id="Rectangle-2-Copy-12" fill="#348ECA" opacity="0.8" transform="translate(61.500000, 92.500000) rotate(-66.000000) translate(-61.500000, -92.500000) " x="24" y="55" width="75" height="75"></rect>
                <rect id="Rectangle-2-Copy-5" fill="#EB3B8B" opacity="0.8" transform="translate(69.500000, 258.500000) rotate(-32.000000) translate(-69.500000, -258.500000) " x="32" y="221" width="75" height="75"></rect>
                <rect id="Rectangle-2-Copy-6" fill="#D52E37" opacity="0.8" transform="translate(82.000000, 148.000000) rotate(-38.000000) translate(-82.000000, -148.000000) " x="24" y="90" width="116" height="116"></rect>
                <rect id="Rectangle-2-Copy-8" fill="#8774AC" opacity="0.8" transform="translate(131.500000, 193.500000) rotate(36.000000) translate(-131.500000, -193.500000) " x="94" y="157" width="75" height="73"></rect>
                <rect id="Rectangle-2-Copy-9" fill="#348ECA" opacity="0.8" transform="translate(127.000000, 224.000000) rotate(-45.000000) translate(-127.000000, -224.000000) " x="92" y="189" width="70" height="70"></rect>
                <rect id="Rectangle-2-Copy-10" fill="#F37350" opacity="0.8" transform="translate(50.000000, 226.000000) rotate(91.000000) translate(-50.000000, -226.000000) " x="19" y="195" width="62" height="62"></rect>
                <rect id="Rectangle-2-Copy-11" fill="#EB3B8B" opacity="0.8" transform="translate(71.000000, 181.000000) rotate(25.000000) translate(-71.000000, -181.000000) " x="24" y="135" width="94" height="92"></rect>
                <g id="Foss.lk-text" transform="translate(40.000000, 170.000000)" fill="#FFFFFF">
                    <path d="M76.6873437,6.83572804 C78.0730961,2.57426085 82.5210306,0 88.5094429,0 C93.5108326,0 100.96745,1.89948191 101.740392,9.98332354 L94.0109717,9.98332354 C93.6017671,7.73044964 92.1468173,6.18435972 89.009582,6.18435972 C86.3724856,6.18435972 84.5992654,7.24453568 84.5992654,9.18819159 C84.5992654,10.8226295 85.8268795,11.5294135 88.1457055,12.0153275 L92.4650876,12.9871554 C98.1030178,14.1798533 101.785859,16.3885533 101.785859,21.556911 C101.785859,27.5645748 96.6935354,31.3193646 88.9641147,31.3193646 C83.7821753,31.3193646 78.9786743,29.554526 76.5645112,25.5866347 C74.7790929,29.1954716 70.4574946,31.3193646 64.6442255,31.3193646 C57.687747,31.3193646 51.4132762,28.1388366 50.6858015,20.7176051 L58.3697547,20.7176051 C58.8698938,23.3680449 61.2341871,24.9583089 64.8715615,24.9583089 C67.7359937,24.9583089 69.2364106,23.942307 69.2364106,22.307869 C69.2364106,21.291867 68.5998702,20.2316911 65.9627738,19.7457771 L60.8704496,18.6414271 C54.7778476,17.3603812 51.9134153,14.5774193 51.9134153,9.80662754 C51.9134153,3.79896384 56.9148051,0 64.1895539,0 C68.4636143,0 74.5307221,1.38718733 76.6873437,6.83572804 Z M76.2346286,9.98332354 L69.6910825,9.98332354 C69.2818779,7.73044964 67.8269283,6.18435972 64.6896927,6.18435972 C62.0525963,6.18435972 60.2793764,7.24453568 60.2793764,9.18819159 C60.2793764,10.8226295 61.5069902,11.5294135 63.8258163,12.0153275 L68.1451983,12.9871554 C73.4679769,14.1131833 77.0481307,16.144802 77.4317493,20.7176051 L82.689644,20.7176051 C83.1897828,23.3680449 85.5540764,24.9583089 89.1914506,24.9583089 C92.055883,24.9583089 93.5562999,23.942307 93.5562999,22.307869 C93.5562999,21.291867 92.9197595,20.2316911 90.2826631,19.7457771 L85.1903388,18.6414271 C79.1733453,17.3762788 76.3048962,14.6462605 76.2346286,9.98332499 L76.2346286,9.98332354 Z M7.68395334,7.24453568 L7.68395334,13.6055914 L20.9603698,13.6055914 L20.9603698,20.0991691 L7.68395334,20.0991691 L7.68395334,30.7009286 L0,30.7009286 L0,0.66260997 L23.0518601,0.66260997 L23.0518601,7.24453568 L7.68395334,7.24453568 Z M78.9057643,47.9263337 C77.8953824,47.9263337 77.0668695,47.1802839 77.0668695,46.1986397 C77.0668695,45.2366279 77.8953824,44.4905784 78.9057643,44.4905784 C79.916146,44.4905784 80.7446592,45.2366279 80.7446592,46.1986397 C80.7446592,47.1802839 79.916146,47.9263337 78.9057643,47.9263337 Z M85.6551144,33.6335912 L85.6551144,47.5729417 L82.3814776,47.5729417 L82.3814776,33.6335912 L85.6551144,33.6335912 Z M92.5459182,44.2746165 L91.1717989,45.7078174 L91.1717989,47.5729417 L87.8981621,47.5729417 L87.8981621,33.6335912 L91.1717989,33.6335912 L91.1717989,41.6241766 L94.5868892,38.050991 L98.486963,38.050991 L94.768758,41.9383029 L98.810285,47.5729417 L94.8900039,47.5729417 L92.5459182,44.2746165 Z" id="FOSS-.lk-Copy-2"></path>
                    <path d="M36.3982583,0 C45.7705515,0 52.8225194,6.90266005 52.8225194,15.6637286 C52.8225194,24.4247971 45.7705515,31.3274572 36.3982583,31.3274572 C27.0714618,31.3274572 20.0194937,24.4247971 20.0194937,15.6637286 C20.0194937,6.90266005 27.0714618,0 36.3982583,0 Z M36.3982583,24.3805494 C41.4028808,24.3805494 44.9971098,20.3982454 44.9971098,15.6637286 C44.9971098,10.9292117 41.4028808,6.94690788 36.3982583,6.94690788 C31.3936357,6.94690788 27.7994069,10.9292117 27.7994069,15.6637286 C27.7994069,20.3982454 31.3936357,24.3805494 36.3982583,24.3805494 Z" id="Combined-Shape"></path>
                </g>
            </g>
        </g>
    </g>
</svg>