<?xml version="1.0" encoding="UTF-8"?>
<svg width="430px" height="144px" viewBox="0 0 430 144" version="1.1" xmlns="http://www.w3.org/2000/svg" xmlns:xlink="http://www.w3.org/1999/xlink">
    <!-- Generator: Sketch 51.2 (57519) - http://www.bohemiancoding.com/sketch -->
    <title>Brand/ Logo/ Secondry-Brand</title>
    <desc>Created with Sketch.</desc>
    <defs></defs>
    <g id="Brand-Guideline" stroke="none" stroke-width="1" fill="none" fill-rule="evenodd">
        <g id="p07" transform="translate(-49.000000, -195.000000)" fill-rule="nonzero">
            <g id="Brand/-Logo/-Secondry-Brand" transform="translate(49.000000, 195.000000)">
                <g id="first-copy-7" opacity="0.8">
                    <rect id="Rectangle-2" fill="#348ECA" transform="translate(13.084045, 7.626168) rotate(-1.000000) translate(-13.084045, -7.626168) " x="5.70330183" y="0.224299065" width="14.7614871" height="14.8037383"></rect>
                    <rect id="Rectangle-2-Copy" fill="#D52E37" transform="translate(24.211075, 12.392523) rotate(-5.000000) translate(-24.211075, -12.392523) " x="18.1163705" y="6.28037383" width="12.1894098" height="12.2242991"></rect>
                    <rect id="Rectangle-2-Copy-3" fill="#8774AC" transform="translate(33.716578, 43.345794) rotate(-50.000000) translate(-33.716578, -43.345794) " x="16.4389288" y="26.0186916" width="34.5552993" height="34.6542056"></rect>
                    <rect id="Rectangle-2-Copy-12" fill="#348ECA" transform="translate(28.125106, 42.785047) rotate(-66.000000) translate(-28.125106, -42.785047) " x="10.8474564" y="25.4579439" width="34.5552993" height="34.6542056"></rect>
                    <rect id="Rectangle-2-Copy-5" fill="#EB3B8B" transform="translate(32.374625, 120.056075) rotate(-32.000000) translate(-32.374625, -120.056075) " x="15.0969754" y="102.728972" width="34.5552993" height="34.6542056"></rect>
                    <rect id="Rectangle-2-Copy-6" fill="#D52E37" transform="translate(37.462865, 67.738318) rotate(-38.000000) translate(-37.462865, -67.738318) " x="10.8474564" y="41.046729" width="53.2308171" height="53.3831776"></rect>
                    <rect id="Rectangle-2-Copy-8" fill="#8774AC" transform="translate(60.108328, 89.663551) rotate(36.000000) translate(-60.108328, -89.663551) " x="42.9425079" y="72.4485981" width="34.3316404" height="34.4299065"></rect>
                    <rect id="Rectangle-2-Copy-9" fill="#348ECA" transform="translate(58.710460, 103.962617) rotate(-45.000000) translate(-58.710460, -103.962617) " x="42.718849" y="87.9252336" width="31.983222" height="32.0747664"></rect>
                    <rect id="Rectangle-2-Copy-10" fill="#F37350" transform="translate(23.036866, 104.074766) rotate(91.000000) translate(-23.036866, -104.074766) " x="8.83452637" y="89.8317757" width="28.4046797" height="28.4859813"></rect>
                    <rect id="Rectangle-2-Copy-11" fill="#EB3B8B" transform="translate(32.262796, 84.168224) rotate(25.000000) translate(-32.262796, -84.168224) " x="10.735627" y="62.5794393" width="43.0543374" height="43.1775701"></rect>
                </g>
                <path d="M114.964578,37.7069477 L114.964578,42.2980118 L124.37894,42.2980118 L124.37894,46.984723 L114.964578,46.984723 L114.964578,54.6364965 L109.515855,54.6364965 L109.515855,32.9564717 L125.862025,32.9564717 L125.862025,37.7069477 L114.964578,37.7069477 Z M136.89739,38.9184785 L136.89739,43.8283665 C134.350354,43.9240136 132.738306,44.5935438 131.513149,45.8050746 L131.513149,54.6364965 L126.290113,54.6364965 L126.290113,39.1735376 L131.513149,39.1735376 L131.513149,40.8314219 C132.899511,39.6517735 134.576041,38.9184785 136.89739,38.9184785 Z M153.510443,46.570252 C153.510443,47.144135 153.510443,47.7499004 153.41372,48.3237834 L153.445961,48.4194305 L142.290587,48.4194305 C142.70972,49.8222557 143.805913,50.9062569 145.804852,50.9062569 C146.901045,50.9062569 147.73931,50.4917859 148.190684,49.7903733 L153.349238,49.7903733 C152.607696,52.9786122 149.609286,54.9872028 145.74037,54.9872028 C140.614057,54.9872028 137.196515,51.6076695 137.196515,46.8890759 C137.196515,42.2023646 140.517334,38.8228313 145.514684,38.8228313 C150.06066,38.8228313 153.510443,41.9154231 153.510443,46.570252 Z M145.514684,42.80813 C143.741431,42.80813 142.612997,43.8283665 142.226105,45.3906036 L148.609816,45.3906036 C148.319648,43.7008369 147.191214,42.80813 145.514684,42.80813 Z M170.865038,46.570252 C170.865038,47.144135 170.865038,47.7499004 170.768315,48.3237834 L170.800556,48.4194305 L159.645182,48.4194305 C160.064315,49.8222557 161.160507,50.9062569 163.159447,50.9062569 C164.25564,50.9062569 165.093905,50.4917859 165.545279,49.7903733 L170.703833,49.7903733 C169.962291,52.9786122 166.963881,54.9872028 163.094965,54.9872028 C157.968652,54.9872028 154.55111,51.6076695 154.55111,46.8890759 C154.55111,42.2023646 157.871929,38.8228313 162.869278,38.8228313 C167.415254,38.8228313 170.865038,41.9154231 170.865038,46.570252 Z M162.869278,42.80813 C161.096025,42.80813 159.967592,43.8283665 159.5807,45.3906036 L165.964411,45.3906036 C165.674242,43.7008369 164.545809,42.80813 162.869278,42.80813 Z M196.353311,39.1735376 L196.353311,54.6364965 L191.130275,54.6364965 L191.130275,53.775672 C189.9696,54.5089669 188.550998,54.9553204 186.842227,54.9553204 C182.61866,54.9553204 179.072154,51.4801399 179.072154,46.8890759 C179.072154,42.2661294 182.61866,38.8228313 186.842227,38.8228313 C188.550998,38.8228313 189.9696,39.2691848 191.130275,40.0024797 L191.130275,39.1735376 L196.353311,39.1735376 Z M187.873938,50.7149626 C189.034612,50.7149626 190.163046,50.3961387 191.130275,49.2802551 L191.130275,44.4978966 C190.163046,43.382013 189.034612,43.0313067 187.873938,43.0313067 C185.746034,43.0313067 184.198468,44.7529558 184.198468,46.8890759 C184.198468,49.0251959 185.746034,50.7149626 187.873938,50.7149626 Z M208.323665,38.6953018 C212.289304,38.6953018 214.997545,41.4053049 214.997545,45.8050746 L214.997545,54.6364965 L209.742268,54.6364965 L209.742268,46.6340167 C209.742268,44.4341319 208.613834,43.382013 206.905063,43.382013 C205.937834,43.382013 204.906123,43.9240136 204.003376,44.9442501 L204.003376,54.6364965 L198.78034,54.6364965 L198.78034,39.1735376 L204.003376,39.1735376 L204.003376,40.2256565 C205.260773,39.2373024 206.647135,38.6953018 208.323665,38.6953018 Z M233.609537,32 L233.609537,54.6364965 L228.386501,54.6364965 L228.386501,53.8394367 C227.225826,54.5727317 225.807224,55.0190852 224.098453,55.0190852 C219.874886,55.0190852 216.32838,51.5439047 216.32838,46.9209582 C216.32838,42.3298942 219.874886,38.8865961 224.098453,38.8865961 C225.807224,38.8865961 227.225826,39.3329496 228.386501,40.0662445 L228.386501,32 L233.609537,32 Z M225.130164,50.7787274 C226.290838,50.7787274 227.419272,50.4599035 228.386501,49.3440198 L228.386501,44.5616614 C227.419272,43.4457778 226.290838,43.0950715 225.130164,43.0950715 C223.00226,43.0950715 221.454694,44.8167205 221.454694,46.9209582 C221.454694,49.0889607 223.00226,50.7787274 225.130164,50.7787274 Z M253.262196,32.5101182 C259.903835,32.5101182 264.901185,37.483771 264.901185,43.7964841 C264.901185,50.1091972 259.903835,55.0828499 253.262196,55.0828499 C246.652799,55.0828499 241.655449,50.1091972 241.655449,43.7964841 C241.655449,37.483771 246.652799,32.5101182 253.262196,32.5101182 Z M253.262196,50.0773148 C256.808702,50.0773148 259.355739,47.2078997 259.355739,43.7964841 C259.355739,40.3850684 256.808702,37.5156534 253.262196,37.5156534 C249.71569,37.5156534 247.168654,40.3850684 247.168654,43.7964841 C247.168654,47.2078997 249.71569,50.0773148 253.262196,50.0773148 Z M276.452406,38.8228313 C280.675972,38.8228313 284.222478,42.2661294 284.222478,46.8890759 C284.222478,51.4801399 280.675972,54.9553204 276.452406,54.9553204 C274.743635,54.9553204 273.325032,54.5089669 272.164357,53.775672 L272.164357,61.8100341 L266.941321,61.8100341 L266.941321,39.1735376 L272.164357,39.1735376 L272.164357,40.0024797 C273.325032,39.2691848 274.743635,38.8228313 276.452406,38.8228313 Z M275.420695,50.7149626 C277.548599,50.7149626 279.096165,49.0251959 279.096165,46.8890759 C279.096165,44.7529558 277.548599,43.0313067 275.420695,43.0313067 C274.26002,43.0313067 273.131586,43.382013 272.164357,44.4978966 L272.164357,49.2802551 C273.131586,50.3961387 274.26002,50.7149626 275.420695,50.7149626 Z M301.544832,46.570252 C301.544832,47.144135 301.544832,47.7499004 301.448109,48.3237834 L301.48035,48.4194305 L290.324976,48.4194305 C290.744109,49.8222557 291.840302,50.9062569 293.839242,50.9062569 C294.935434,50.9062569 295.773699,50.4917859 296.225073,49.7903733 L301.383627,49.7903733 C300.642085,52.9786122 297.643675,54.9872028 293.77476,54.9872028 C288.648446,54.9872028 285.230904,51.6076695 285.230904,46.8890759 C285.230904,42.2023646 288.551723,38.8228313 293.549073,38.8228313 C298.095049,38.8228313 301.544832,41.9154231 301.544832,46.570252 Z M293.549073,42.80813 C291.77582,42.80813 290.647386,43.8283665 290.260494,45.3906036 L296.644205,45.3906036 C296.354037,43.7008369 295.225603,42.80813 293.549073,42.80813 Z M312.547957,38.6953018 C316.513596,38.6953018 319.221837,41.4053049 319.221837,45.8050746 L319.221837,54.6364965 L313.966559,54.6364965 L313.966559,46.6340167 C313.966559,44.4341319 312.838126,43.382013 311.129354,43.382013 C310.162126,43.382013 309.130415,43.9240136 308.227668,44.9442501 L308.227668,54.6364965 L303.004631,54.6364965 L303.004631,39.1735376 L308.227668,39.1735376 L308.227668,40.2256565 C309.485065,39.2373024 310.871427,38.6953018 312.547957,38.6953018 Z M337.68158,32.4782358 C341.228086,32.4782358 346.515604,33.8491786 347.063701,39.6836558 L341.582737,39.6836558 C341.292568,38.057654 340.260857,36.9417704 338.036231,36.9417704 C336.166255,36.9417704 334.908857,37.7069477 334.908857,39.1097728 C334.908857,40.2894212 335.779363,40.7995395 337.423652,41.1502458 L340.486544,41.8516583 C344.484424,42.7124828 347.095942,44.3066023 347.095942,48.0368419 C347.095942,52.3728468 343.484954,55.0828499 338.00399,55.0828499 C333.071122,55.0828499 328.621869,52.7873179 328.106014,47.4310765 L333.554737,47.4310765 C333.909387,49.3440198 335.585917,50.4917859 338.165194,50.4917859 C340.196375,50.4917859 341.260327,49.7584909 341.260327,48.5788425 C341.260327,47.8455475 340.808954,47.0803702 338.938978,46.7296639 L335.32799,45.9326042 C331.0077,45.0080149 328.97652,42.9994243 328.97652,39.5561263 C328.97652,35.2201213 332.523026,32.4782358 337.68158,32.4782358 Z M356.712705,38.8228313 C361.645573,38.8228313 365.192079,42.234247 365.192079,46.8890759 C365.192079,51.6076695 361.645573,55.1147323 356.712705,55.1147323 C351.779837,55.1147323 348.233331,51.6076695 348.233331,46.8890759 C348.233331,42.234247 351.779837,38.8228313 356.712705,38.8228313 Z M356.744946,50.6511978 C358.840609,50.6511978 360.259211,48.9933136 360.259211,46.9209582 C360.259211,44.9123677 358.840609,43.2863659 356.744946,43.2863659 C354.617042,43.2863659 353.19844,44.9123677 353.19844,46.9209582 C353.19844,48.9933136 354.617042,50.6511978 356.744946,50.6511978 Z M382.77236,39.1735376 L382.77236,54.6364965 L377.549324,54.6364965 L377.549324,53.61626 C376.291926,54.5727317 374.937806,55.1147323 373.261276,55.1147323 C369.295637,55.1147323 366.587396,52.4047292 366.587396,48.0049595 L366.587396,39.1735376 L371.810432,39.1735376 L371.810432,47.2078997 C371.810432,49.4077846 372.971107,50.4599035 374.679878,50.4599035 C375.647107,50.4599035 376.646577,49.9179028 377.549324,48.9295488 L377.549324,39.1735376 L382.77236,39.1735376 Z M395.806666,38.9184785 L395.806666,43.8283665 C393.25963,43.9240136 391.647581,44.5935438 390.422425,45.8050746 L390.422425,54.6364965 L385.199388,54.6364965 L385.199388,39.1735376 L390.422425,39.1735376 L390.422425,40.8314219 C391.808786,39.6517735 393.485316,38.9184785 395.806666,38.9184785 Z M404.649646,50.6193154 C406.261694,50.6193154 407.45461,49.6947261 407.712538,48.291901 L412.645405,48.291901 C412.290755,52.2771997 408.969935,54.9872028 404.649646,54.9872028 C399.716778,54.9872028 396.10579,51.6076695 396.10579,46.8890759 C396.10579,42.2023646 399.716778,38.8228313 404.649646,38.8228313 C408.969935,38.8228313 412.290755,41.5328344 412.645405,45.5181331 L407.712538,45.5181331 C407.45461,44.115308 406.261694,43.1907187 404.649646,43.1907187 C402.425019,43.1907187 401.070899,44.7848382 401.070899,46.8890759 C401.070899,48.9933136 402.425019,50.6193154 404.649646,50.6193154 Z M430,46.570252 C430,47.144135 430,47.7499004 429.903277,48.3237834 L429.935518,48.4194305 L418.780144,48.4194305 C419.199277,49.8222557 420.29547,50.9062569 422.294409,50.9062569 C423.390602,50.9062569 424.228867,50.4917859 424.680241,49.7903733 L429.838795,49.7903733 C429.097253,52.9786122 426.098843,54.9872028 422.229928,54.9872028 C417.103614,54.9872028 413.686072,51.6076695 413.686072,46.8890759 C413.686072,42.2023646 417.006891,38.8228313 422.004241,38.8228313 C426.550217,38.8228313 430,41.9154231 430,46.570252 Z M422.004241,42.80813 C420.230988,42.80813 419.102554,43.8283665 418.715662,45.3906036 L425.099373,45.3906036 C424.809205,43.7008369 423.680771,42.80813 422.004241,42.80813 Z M120.574506,80.2672807 C123.476193,80.2672807 125.410651,78.5775141 126.023229,75.867511 L131.600916,75.867511 C130.923856,81.4788115 126.603567,85.3046982 120.606747,85.3046982 C113.99735,85.3046982 109,80.5542222 109,74.0183324 C109,67.4824425 113.99735,62.7319665 120.606747,62.7319665 C126.603567,62.7319665 130.923856,66.5578533 131.600916,72.1691538 L126.023229,72.1691538 C125.410651,69.4591507 123.476193,67.769384 120.574506,67.769384 C116.995759,67.769384 114.513205,70.4156224 114.513205,74.0183324 C114.513205,77.6210424 116.995759,80.2672807 120.574506,80.2672807 Z M141.024234,69.0446796 C145.957101,69.0446796 149.503607,72.4560953 149.503607,77.1109241 C149.503607,81.8295178 145.957101,85.3365806 141.024234,85.3365806 C136.091366,85.3365806 132.54486,81.8295178 132.54486,77.1109241 C132.54486,72.4560953 136.091366,69.0446796 141.024234,69.0446796 Z M141.056475,80.8730461 C143.152137,80.8730461 144.57074,79.2151618 144.57074,77.1428065 C144.57074,75.134216 143.152137,73.5082141 141.056475,73.5082141 C138.928571,73.5082141 137.509969,75.134216 137.509969,77.1428065 C137.509969,79.2151618 138.928571,80.8730461 141.056475,80.8730461 Z M170.436949,68.9171501 C174.176901,68.9171501 176.949624,71.6271532 176.949624,76.0269229 L176.949624,84.8583448 L171.694347,84.8583448 L171.694347,76.855865 C171.694347,74.6559802 170.630395,73.6038613 168.889383,73.6038613 C168.083359,73.6038613 167.277335,73.9545676 166.503552,74.8791569 C166.535793,75.2617456 166.568034,75.6443342 166.568034,76.0269229 L166.568034,84.8583448 L161.344997,84.8583448 L161.344997,76.855865 C161.344997,74.6559802 160.248804,73.6038613 158.540033,73.6038613 C157.734009,73.6038613 156.960226,73.98645 156.186443,74.9748041 L156.186443,84.8583448 L150.963407,84.8583448 L150.963407,69.3953859 L156.186443,69.3953859 L156.186443,70.3199752 C157.250395,69.4272683 158.346588,68.9171501 160.0876,68.9171501 C162.054299,68.9171501 163.730829,69.650445 164.891503,70.9895054 C166.535793,69.5547979 168.1156,68.9171501 170.436949,68.9171501 Z M198.721231,68.9171501 C202.461183,68.9171501 205.233906,71.6271532 205.233906,76.0269229 L205.233906,84.8583448 L199.978629,84.8583448 L199.978629,76.855865 C199.978629,74.6559802 198.914677,73.6038613 197.173665,73.6038613 C196.367641,73.6038613 195.561617,73.9545676 194.787833,74.8791569 C194.820074,75.2617456 194.852315,75.6443342 194.852315,76.0269229 L194.852315,84.8583448 L189.629279,84.8583448 L189.629279,76.855865 C189.629279,74.6559802 188.533086,73.6038613 186.824315,73.6038613 C186.018291,73.6038613 185.244508,73.98645 184.470725,74.9748041 L184.470725,84.8583448 L179.247689,84.8583448 L179.247689,69.3953859 L184.470725,69.3953859 L184.470725,70.3199752 C185.534677,69.4272683 186.630869,68.9171501 188.371882,68.9171501 C190.33858,68.9171501 192.015111,69.650445 193.175785,70.9895054 C194.820074,69.5547979 196.399882,68.9171501 198.721231,68.9171501 Z M223.523489,69.3953859 L223.523489,84.8583448 L218.300453,84.8583448 L218.300453,83.8381083 C217.043055,84.79458 215.688934,85.3365806 214.012404,85.3365806 C210.046766,85.3365806 207.338525,82.6265775 207.338525,78.2268078 L207.338525,69.3953859 L212.561561,69.3953859 L212.561561,77.429748 C212.561561,79.6296329 213.722236,80.6817518 215.431007,80.6817518 C216.398236,80.6817518 217.397706,80.1397511 218.300453,79.1513971 L218.300453,69.3953859 L223.523489,69.3953859 Z M235.493843,68.9171501 C239.459481,68.9171501 242.167722,71.6271532 242.167722,76.0269229 L242.167722,84.8583448 L236.912445,84.8583448 L236.912445,76.855865 C236.912445,74.6559802 235.784011,73.6038613 234.07524,73.6038613 C233.108011,73.6038613 232.0763,74.1458619 231.173553,75.1660984 L231.173553,84.8583448 L225.950517,84.8583448 L225.950517,69.3953859 L231.173553,69.3953859 L231.173553,70.4475048 C232.430951,69.4591507 233.817312,68.9171501 235.493843,68.9171501 Z M247.077305,66.9723243 C245.368534,66.9723243 244.014413,65.7289111 244.014413,64.0710269 C244.014413,62.3812602 245.368534,61.1378471 247.077305,61.1378471 C248.753835,61.1378471 250.140196,62.3812602 250.140196,64.0710269 C250.140196,65.7289111 248.753835,66.9723243 247.077305,66.9723243 Z M249.721064,69.3953859 L249.721064,84.8583448 L244.498027,84.8583448 L244.498027,69.3953859 L249.721064,69.3953859 Z M264.206213,80.2035159 L264.78655,84.5714033 C262.755369,85.2090511 261.594695,85.3365806 260.047128,85.3365806 C256.274935,85.3365806 253.76014,82.5946951 253.76014,78.4181021 L253.76014,73.827038 L250.697249,73.827038 L250.697249,69.3953859 L253.76014,69.3953859 L253.76014,64.1347917 L258.983176,64.1347917 L258.983176,69.3953859 L264.302936,69.3953859 L264.302936,73.827038 L258.983176,73.827038 L258.983176,78.2586902 C258.983176,79.8209272 259.885923,80.5861046 261.43349,80.5861046 C262.175032,80.5861046 263.045538,80.4266926 264.206213,80.2035159 Z M283.785434,69.3953859 L274.145386,92 L268.664422,92 L271.63059,85.0496391 L264.215169,69.3953859 L269.760614,69.3953859 L274.242109,78.9282203 L278.30447,69.3953859 L283.785434,69.3953859 Z" id="Free-and-Open-Source" fill="#000000"></path>
                <g id="sri--lanka" transform="translate(109.000000, 92.000000)" fill="#7E7E7E">
                    <path d="M9.59312787,1.68636364 C13.1246689,1.68636364 18.3898754,3.09363636 18.935659,9.08272727 L13.477823,9.08272727 C13.1888787,7.41363636 12.1615213,6.26818182 9.94628197,6.26818182 C8.08419672,6.26818182 6.83210492,7.05363636 6.83210492,8.49363636 C6.83210492,9.70454545 7.6989377,10.2281818 9.33628852,10.5881818 L12.3862557,11.3081818 C16.3672656,12.1918182 18.9677639,13.8281818 18.9677639,17.6572727 C18.9677639,22.1081818 15.3720131,24.89 9.91417705,24.89 C5.00212459,24.89 0.571645902,22.5336364 0.0579672131,17.0354545 L5.48369836,17.0354545 C5.83685246,18.9990909 7.5063082,20.1772727 10.0747016,20.1772727 C12.0973115,20.1772727 13.1567738,19.4245455 13.1567738,18.2136364 C13.1567738,17.4609091 12.7073049,16.6754545 10.8452197,16.3154545 L7.24946885,15.4972727 C2.94740984,14.5481818 0.9248,12.4863636 0.9248,8.95181818 C0.9248,4.50090909 4.45634098,1.68636364 9.59312787,1.68636364 Z" id="Path"></path>
                    <path d="M31.1765508,8.29727273 L31.1765508,13.3372727 C28.6402623,13.4354545 27.0350164,14.1227273 25.8150295,15.3663636 L25.8150295,24.4318182 L20.6140328,24.4318182 L20.6140328,8.55909091 L25.8150295,8.55909091 L25.8150295,10.2609091 C27.195541,9.05 28.8649967,8.29727273 31.1765508,8.29727273 Z" id="Path"></path>
                    <path d="M35.3591082,6.07181818 C33.6575475,6.07181818 32.309141,4.79545455 32.309141,3.09363636 C32.309141,1.35909091 33.6575475,0.0827272727 35.3591082,0.0827272727 C37.0285639,0.0827272727 38.4090754,1.35909091 38.4090754,3.09363636 C38.4090754,4.79545455 37.0285639,6.07181818 35.3591082,6.07181818 Z" id="Path"></path>
                    <polygon id="Path" points="37.9917115 8.55909091 37.9917115 24.4318182 32.7907148 24.4318182 32.7907148 8.55909091"></polygon>
                    <polygon id="Path" points="64.0145311 19.5554545 64.0145311 24.4318182 47.8015475 24.4318182 47.8015475 2.17727273 53.2272787 2.17727273 53.2272787 19.5554545"></polygon>
                    <path d="M81.8095738,8.55909091 L81.8095738,24.4318182 L76.608577,24.4318182 L76.608577,23.5481818 C75.4528,24.3009091 74.0401836,24.7590909 72.338623,24.7590909 C68.1328787,24.7590909 64.6013377,21.1918182 64.6013377,16.4790909 C64.6013377,11.7336364 68.1328787,8.19909091 72.338623,8.19909091 C74.0401836,8.19909091 75.4528,8.65727273 76.608577,9.41 L76.608577,8.55909091 L81.8095738,8.55909091 Z M73.3659803,20.4063636 C74.5217574,20.4063636 75.6454295,20.0790909 76.608577,18.9336364 L76.608577,14.0245455 C75.6454295,12.8790909 74.5217574,12.5190909 73.3659803,12.5190909 C71.2470557,12.5190909 69.7060197,14.2863636 69.7060197,16.4790909 C69.7060197,18.6718182 71.2470557,20.4063636 73.3659803,20.4063636 Z" id="Combined-Shape"></path>
                    <path d="M93.7294164,8.06818182 C97.6783213,8.06818182 100.375134,10.85 100.375134,15.3663636 L100.375134,24.4318182 L95.1420328,24.4318182 L95.1420328,16.2172727 C95.1420328,13.9590909 94.0183607,12.8790909 92.3168,12.8790909 C91.3536525,12.8790909 90.3262951,13.4354545 89.4273574,14.4827273 L89.4273574,24.4318182 L84.2263607,24.4318182 L84.2263607,8.55909091 L89.4273574,8.55909091 L89.4273574,9.63909091 C90.6794492,8.62454545 92.0599607,8.06818182 93.7294164,8.06818182 Z" id="Path"></path>
                    <polygon id="Path" points="109.951318 18.9336364 107.768184 21.3227273 107.768184 24.4318182 102.567187 24.4318182 102.567187 1.19545455 107.768184 1.19545455 107.768184 14.5154545 113.193915 8.55909091 119.390164 8.55909091 113.482859 15.0390909 119.903843 24.4318182 113.675489 24.4318182"></polygon>
                    <path d="M135.997325,8.55909091 L135.997325,24.4318182 L130.796328,24.4318182 L130.796328,23.5481818 C129.640551,24.3009091 128.227934,24.7590909 126.526374,24.7590909 C122.32063,24.7590909 118.789089,21.1918182 118.789089,16.4790909 C118.789089,11.7336364 122.32063,8.19909091 126.526374,8.19909091 C128.227934,8.19909091 129.640551,8.65727273 130.796328,9.41 L130.796328,8.55909091 L135.997325,8.55909091 Z M127.553731,20.4063636 C128.709508,20.4063636 129.83318,20.0790909 130.796328,18.9336364 L130.796328,14.0245455 C129.83318,12.8790909 128.709508,12.5190909 127.553731,12.5190909 C125.434807,12.5190909 123.89377,14.2863636 123.89377,16.4790909 C123.89377,18.6718182 125.434807,20.4063636 127.553731,20.4063636 Z" id="Combined-Shape"></path>
                </g>
                <rect id="Rectangle-4" fill="#000000" x="100" y="33" width="1" height="89"></rect>
            </g>
        </g>
    </g>
</svg>