<?xml version="1.0" encoding="UTF-8"?>
<svg width="266px" height="129px" viewBox="0 0 266 129" version="1.1" xmlns="http://www.w3.org/2000/svg" xmlns:xlink="http://www.w3.org/1999/xlink">
    <!-- Generator: Sketch 51.2 (57519) - http://www.bohemiancoding.com/sketch -->
    <title>Brand/ Logo/ Third-Text</title>
    <desc>Created with Sketch.</desc>
    <defs></defs>
    <g id="Brand-Guideline" stroke="none" stroke-width="1" fill="none" fill-rule="evenodd">
        <g id="p08" transform="translate(-49.000000, -203.000000)">
            <g id="Brand/-Logo/-Third-Text" transform="translate(49.000000, 203.000000)">
                <path d="M200.409306,18.3992567 C204.030733,6.92895998 215.654653,0 231.304348,0 C244.374628,0 263.861227,5.11270418 265.881179,26.871422 L245.681656,26.871422 C244.612269,20.807517 240.810006,16.6460136 232.611376,16.6460136 C225.719774,16.6460136 221.085765,19.499616 221.085765,24.7312202 C221.085765,29.1305238 224.293925,31.0329254 230.353782,32.3408265 L241.641751,34.9566286 C256.375521,38.1669312 266,44.1119361 266,58.0232475 C266,74.1936607 252.692079,84.300169 232.492555,84.300169 C218.95044,84.300169 206.397308,79.5498752 200.088304,68.8697765 C195.422418,78.5834333 184.128657,84.300169 168.936669,84.300169 C150.757097,84.300169 134.359837,75.739362 132.458706,55.7641456 L152.539408,55.7641456 C153.846436,62.8981515 160.025114,67.178555 169.530772,67.178555 C177.016478,67.178555 180.937562,64.4438527 180.937562,60.0445491 C180.937562,57.3098469 179.274072,54.4562446 172.38247,53.1483435 L159.074548,50.1758411 C143.152571,46.7277382 135.666865,39.2370321 135.666865,26.3958216 C135.666865,10.2254084 148.737145,0 167.748461,0 C178.917991,0 194.773343,3.73379627 200.409306,18.3992567 Z M199.226212,26.871422 L182.125769,26.871422 C181.056383,20.807517 177.25412,16.6460136 169.055489,16.6460136 C162.163887,16.6460136 157.529879,19.499616 157.529879,24.7312202 C157.529879,29.1305238 160.738039,31.0329254 166.797896,32.3408265 L178.085865,34.9566286 C191.996039,37.9874802 201.352161,43.4558475 202.354683,55.7641456 L216.095295,55.7641456 C217.402323,62.8981515 223.581001,67.178555 233.086659,67.178555 C240.572365,67.178555 244.493448,64.4438527 244.493448,60.0445491 C244.493448,57.3098469 242.829958,54.4562446 235.938356,53.1483435 L222.630435,50.1758411 C206.906046,46.7705284 199.409843,39.4223256 199.226212,26.871422 Z M20.0807028,19.499616 L20.0807028,36.62123 L54.776355,36.62123 L54.776355,54.0995443 L20.0807028,54.0995443 L20.0807028,82.6355676 L0,82.6355676 L0,1.78350146 L60.2421084,1.78350146 L60.2421084,19.499616 L20.0807028,19.499616 Z M223.845047,90.529213 L223.845047,128.048799 L215.289954,128.048799 L215.289954,90.529213 L223.845047,90.529213 Z M241.852988,119.170925 L238.261961,123.028573 L238.261961,128.048799 L229.706869,128.048799 L229.706869,90.529213 L238.261961,90.529213 L238.261961,112.036919 L247.186718,102.419223 L257.378896,102.419223 L247.662001,112.882431 L258.223844,128.048799 L247.978856,128.048799 L241.852988,119.170925 Z" id="FOSS-.lk-Copy-2" fill="#000000"></path>
                <path d="M206.20677,129 C203.566309,129 201.401132,126.991909 201.401132,124.349685 C201.401132,121.760305 203.566309,119.752215 206.20677,119.752215 C208.84723,119.752215 211.012408,121.760305 211.012408,124.349685 C211.012408,126.991909 208.84723,129 206.20677,129 Z" id="Path" fill="#8774AC"></path>
                <path d="M95.9403606,7.10542736e-15 C120.511789,7.10542736e-15 139,18.5084746 139,42 C139,65.4915254 120.511789,84 95.9403606,84 C71.4882108,84 53,65.4915254 53,42 C53,18.5084746 71.4882108,7.10542736e-15 95.9403606,7.10542736e-15 Z M95.9403606,65.3728814 C109.061026,65.3728814 118.48405,54.6949153 118.48405,42 C118.48405,29.3050847 109.061026,18.6271186 95.9403606,18.6271186 C82.8196949,18.6271186 73.3966713,29.3050847 73.3966713,42 C73.3966713,54.6949153 82.8196949,65.3728814 95.9403606,65.3728814 Z" id="Combined-Shape" fill="#000000"></path>
            </g>
        </g>
    </g>
</svg>