<?xml version="1.0" encoding="UTF-8"?>
<svg width="60px" height="60px" viewBox="0 0 60 60" version="1.1" xmlns="http://www.w3.org/2000/svg" xmlns:xlink="http://www.w3.org/1999/xlink">
    <!-- Generator: Sketch 51.2 (57519) - http://www.bohemiancoding.com/sketch -->
    <title>Brand/ Brandmark/ Visual-Treatment/ Community</title>
    <desc>Created with Sketch.</desc>
    <defs></defs>
    <g id="Brand-Guideline" stroke="none" stroke-width="1" fill="none" fill-rule="evenodd">
        <g id="Brand/-Brandmark/-Visual-Treatment/-Community" fill-rule="nonzero">
            <rect id="Rectangle-6" fill="#3DA52B" x="0" y="0" width="60" height="60"></rect>
            <path d="M30,26 C25.3055796,26 21.5,22.1944204 21.5,17.5 C21.5,12.8055796 25.3055796,9 30,9 C34.6944204,9 38.5,12.8055796 38.5,17.5 C38.5,22.1944204 34.6944204,26 30,26 Z M45,52 C40.3055796,52 36.5,48.1944204 36.5,43.5 C36.5,38.8055796 40.3055796,35 45,35 C49.6944204,35 53.5,38.8055796 53.5,43.5 C53.5,48.1944204 49.6944204,52 45,52 Z M15,52 C10.3055796,52 6.5,48.1944204 6.5,43.5 C6.5,38.8055796 10.3055796,35 15,35 C19.6944204,35 23.5,38.8055796 23.5,43.5 C23.5,48.1944204 19.6944204,52 15,52 Z" id="Combined-Shape" fill="#FFFFFF"></path>
        </g>
    </g>
</svg>