<?xml version="1.0" encoding="UTF-8"?>
<svg width="60px" height="60px" viewBox="0 0 60 60" version="1.1" xmlns="http://www.w3.org/2000/svg" xmlns:xlink="http://www.w3.org/1999/xlink">
    <!-- Generator: Sketch 51.2 (57519) - http://www.bohemiancoding.com/sketch -->
    <title>Brand/ Brandmark/ Visual-Treatment/ Education</title>
    <desc>Created with Sketch.</desc>
    <defs></defs>
    <g id="Brand-Guideline" stroke="none" stroke-width="1" fill="none" fill-rule="evenodd">
        <g id="Brand/-Brandmark/-Visual-Treatment/-Education" fill-rule="nonzero">
            <rect id="Rectangle-6" fill="#F37350" x="0" y="0" width="60" height="60"></rect>
            <path d="M54,36.4973191 C54,37.2397638 53.5452458,37.8841212 52.8955971,38.1572564 C53.5422242,39.435408 53.9969784,42.0581089 53.9969784,42.8065897 C53.9969784,43.8040611 53.1856728,44.6129032 52.1885375,44.6129032 C51.1898913,44.6129032 50.3785857,43.8040611 50.3785857,42.8065897 C50.3785857,42.0581089 50.8318291,39.435408 51.479967,38.1572564 C50.8318291,37.8811032 50.3785857,37.2367457 50.3785857,36.4943011 C50.3785857,35.7835461 50.800102,35.1814416 51.3983832,34.88718 L51.3983832,24.4039218 L30.0929247,32.6915357 C29.7741435,32.8137675 29.4221245,32.8137675 29.1033434,32.6915357 L6.21757637,23.7942721 C6.08462499,23.7429649 5.99850875,23.6146971 6.00001956,23.4713388 C6.00153037,23.3279806 6.09217904,23.2012218 6.22664123,23.1544417 L29.1441353,15.0780925 C29.4387434,14.9739692 29.7590354,14.9739692 30.0521328,15.0780925 L52.9726484,23.1529327 C53.104089,23.1997127 53.1977593,23.3264716 53.1977593,23.4698298 C53.1992701,23.613188 53.1146647,23.7414559 52.9786917,23.792763 L52.9786917,34.888689 C53.5784837,35.1844597 54,35.7820371 54,36.4973191 Z M13.3548387,28.3548387 L29.0199127,34.4537343 C29.3376719,34.5771877 29.6885623,34.5771877 30.0063215,34.4537343 L45.6774194,28.3548387 C45.6744074,30.9097204 45.6744074,33.9162607 45.6744074,34.3905021 C45.6744074,39.1494775 38.5165438,43.0156744 29.516882,43.2580645 C20.5157142,43.0156744 13.3578506,39.1449609 13.3578506,34.3905021 C13.3578506,33.9132496 13.3563447,30.9082149 13.3548387,28.3548387 Z" id="Combined-Shape" fill="#374659"></path>
        </g>
    </g>
</svg>