<?xml version="1.0" encoding="UTF-8"?>
<svg width="60px" height="60px" viewBox="0 0 60 60" version="1.1" xmlns="http://www.w3.org/2000/svg" xmlns:xlink="http://www.w3.org/1999/xlink">
    <!-- Generator: Sketch 51.2 (57519) - http://www.bohemiancoding.com/sketch -->
    <title>Brand/ Brandmark/ Visual-Treatment/ Freedom</title>
    <desc>Created with Sketch.</desc>
    <defs></defs>
    <g id="Brand-Guideline" stroke="none" stroke-width="1" fill="none" fill-rule="evenodd">
        <g id="Brand/-Brandmark/-Visual-Treatment/-Freedom" fill-rule="nonzero">
            <rect id="Rectangle-6" fill="#348ECA" x="0" y="0" width="60" height="60"></rect>
            <path d="M55,53.0000077 L44,53.0000077 C44,45.2680212 37.7319865,39.0000077 30,39.0000077 C22.2680135,39.0000077 16,45.2680212 16,53.0000077 L5,53.0000077 C5,42.6767107 11.2570932,33.8148361 20.1856557,30.0000077 C11.2570932,26.1851793 5,17.3233047 5,7.00000771 C5,6.66509281 5.00658574,6.3317161 5.01963479,6 L16.0351641,6.00000771 C16.5479105,13.2652833 22.6042469,19.0000077 30,19.0000077 C37.3957531,19.0000077 43.4520895,13.2652833 43.9648359,6.00000771 L54.9803655,6.00000771 C54.9934143,6.3317161 55,6.66509281 55,7.00000771 C55,17.3233047 48.7429068,26.1851793 39.8143443,30.0000077 C48.7429068,33.8148361 55,42.6767107 55,53.0000077 Z" id="Combined-Shape" fill="#F37350"></path>
        </g>
    </g>
</svg>