<?xml version="1.0" encoding="UTF-8"?>
<svg width="60px" height="60px" viewBox="0 0 60 60" version="1.1" xmlns="http://www.w3.org/2000/svg" xmlns:xlink="http://www.w3.org/1999/xlink">
    <!-- Generator: Sketch 51.2 (57519) - http://www.bohemiancoding.com/sketch -->
    <title>Brand/ Brandmark/ Visual-Treatment/ Innovation</title>
    <desc>Created with Sketch.</desc>
    <defs></defs>
    <g id="Brand-Guideline" stroke="none" stroke-width="1" fill="none" fill-rule="evenodd">
        <g id="Brand/-Brandmark/-Visual-Treatment/-Innovation" fill-rule="nonzero">
            <rect id="Rectangle-6" fill="#8774AC" x="0" y="0" width="60" height="60"></rect>
            <path d="M52.7662382,26.6184038 C52.6093383,26.412967 52.4046193,26.2907516 52.1510551,26.2519628 L46.7894708,25.4318574 C46.4966047,24.4942569 46.096197,23.5374673 45.5884529,22.5606676 C45.9396049,22.0724217 46.4667434,21.3840749 47.1697658,20.4951143 C47.8727881,19.606359 48.370681,18.9572115 48.6639576,18.5468509 C48.8202418,18.3319735 48.8978195,18.1075528 48.8978195,17.8729731 C48.8978195,17.5997072 48.8300929,17.385035 48.6927927,17.2285459 C47.9900782,16.2323518 46.3785962,14.5723362 43.8589625,12.2479859 C43.6255111,12.052708 43.3806693,11.9551204 43.1271051,11.9551204 C42.8339311,11.9551204 42.5996587,12.0428569 42.4237749,12.2185351 L38.2638241,15.3533449 C37.4628035,14.9429844 36.5838973,14.5816742 35.6273107,14.2692091 L34.8069983,8.87890425 C34.7873986,8.62503278 34.6749315,8.41497826 34.4699047,8.24894591 C34.26457,8.08270833 34.0257825,8 33.7519004,8 L27.2480971,8 C26.6816567,8 26.3299916,8.27326585 26.1934097,8.82020801 C25.939435,9.79639203 25.6561122,11.6127941 25.343749,14.2691065 C24.4256435,14.5625877 23.5369888,14.9336463 22.6776822,15.3827957 L18.6347137,12.2479859 C18.3808417,12.052708 18.1269697,11.9551204 17.8730976,11.9551204 C17.4434444,11.9551204 16.5207211,12.6533183 15.1046201,14.0498165 C13.688519,15.4466227 12.7271095,16.4962796 12.2188524,17.1990952 C12.0429685,17.4529666 11.9553344,17.6776952 11.9553344,17.8729731 C11.9553344,18.1075528 12.0528197,18.3419272 12.2480979,18.5759938 C13.5565548,20.1583293 14.601699,21.505572 15.3830173,22.6193638 C14.8946677,23.5176625 14.5138596,24.4162689 14.2406958,25.3145676 L8.79127212,26.134673 C8.57649679,26.1738722 8.39106965,26.3010132 8.23468283,26.5158906 C8.07798817,26.7305629 8,26.9553941 8,27.1893581 L8,33.6934547 C8,33.9477366 8.07798817,34.1766725 8.23437499,34.3818014 C8.3907618,34.5868278 8.59568599,34.7096589 8.84966064,34.748345 L14.2113476,35.5395128 C14.4846141,36.496405 14.8849192,37.4628405 15.4123655,38.4391272 C15.0610083,38.927681 14.5336645,39.6159251 13.8305396,40.5046804 C13.1275172,41.3938462 12.6290086,42.0427885 12.3363477,42.4529438 C12.1798583,42.6686422 12.1018701,42.8926525 12.1018701,43.1271296 C12.1018701,43.3806932 12.1702124,43.6051139 12.3067943,43.8003918 C13.068513,44.8556926 14.6797897,46.4963138 17.1409323,48.7227686 C17.3559129,48.9376461 17.600139,49.044777 17.8733029,49.044777 C18.1664768,49.044777 18.4106003,48.9573483 18.605776,48.7817727 L22.7369943,45.6465525 C23.5382202,46.0567078 24.4169211,46.4181206 25.3739181,46.7309961 L26.194128,52.121301 C26.2139329,52.3748646 26.3261948,52.5849191 26.5310164,52.7513619 C26.7359406,52.9178048 26.9754463,53 27.2488154,53 L33.7526187,53 C34.3200853,53 34.6712373,52.7268368 34.8082297,52.1796894 C35.0617938,51.2034027 35.3448088,49.3872059 35.6572746,46.7309961 C36.5752775,46.4377202 37.4640348,46.0664563 38.3233414,45.6171017 L42.3666178,48.7817727 C42.6398842,48.9574509 42.8941667,49.044777 43.1280286,49.044777 C43.5575793,49.044777 44.4754796,48.3519152 45.8815243,46.9647549 C47.2882873,45.578313 48.2550328,44.5235252 48.7818634,43.8003918 C48.9574394,43.6052165 49.045484,43.3806932 49.045484,43.1271296 C49.045484,42.8728476 48.9483066,42.6282116 48.75231,42.3945554 C47.3466758,40.6753305 46.3015316,39.3281904 45.6178011,38.3512881 C46.0083577,37.628565 46.3893709,36.7401175 46.7605331,35.6853298 L52.1804033,34.8656349 C52.4142652,34.826333 52.6102618,34.6991921 52.7661356,34.4843146 C52.9224198,34.2690267 52.9999975,34.0442981 52.9999975,33.8100262 L52.9999975,27.3066479 C53.0005106,27.0527764 52.9229328,26.8236354 52.7662382,26.6184038 Z M35.8027131,35.8024053 C34.3382999,37.2674342 32.5706604,38 30.5,38 C28.4295448,38 26.6621106,37.2674342 25.1970816,35.8024053 C23.7325658,34.337992 23,32.57025 23,30.5 C23,28.4295448 23.7321553,26.6621106 25.1970816,25.1970816 C26.6621106,23.7325658 28.4298526,23 30.5,23 C32.5706604,23 34.3384025,23.7325658 35.8027131,25.1970816 C37.2674342,26.6621106 38,28.4295448 38,30.5 C38,32.57025 37.2675368,34.3380947 35.8027131,35.8024053 Z" id="Shape" fill="#FFFFFF"></path>
        </g>
    </g>
</svg>